<mxfile host="app.diagrams.net" modified="2024-07-22T18:52:34.792Z" agent="Mozilla/5.0 (Windows NT 10.0; Win64; x64) AppleWebKit/537.36 (KHTML, like Gecko) Chrome/126.0.0.0 Safari/537.36" etag="TcR91B0PYx6OeKn0s4Xe" version="24.7.3" type="device">
  <diagram name="Page-1" id="9-LSUtMJXMiFwdIN5xYF">
    <mxGraphModel dx="1434" dy="858" grid="1" gridSize="10" guides="1" tooltips="1" connect="1" arrows="1" fold="1" page="1" pageScale="1" pageWidth="827" pageHeight="1169" math="0" shadow="0">
      <root>
        <mxCell id="0" />
        <mxCell id="1" parent="0" />
        <mxCell id="ToIB3P93mRy2LaNMZs85-23" style="edgeStyle=orthogonalEdgeStyle;rounded=0;orthogonalLoop=1;jettySize=auto;html=1;exitX=0;exitY=0.5;exitDx=0;exitDy=0;entryX=1;entryY=0.5;entryDx=0;entryDy=0;" parent="1" edge="1">
          <mxGeometry relative="1" as="geometry">
            <mxPoint x="1170" y="560" as="sourcePoint" />
          </mxGeometry>
        </mxCell>
        <mxCell id="k04LmPVtT5R0oYDf2p-D-8" style="edgeStyle=orthogonalEdgeStyle;rounded=0;orthogonalLoop=1;jettySize=auto;html=1;exitX=1;exitY=0.5;exitDx=0;exitDy=0;entryX=0;entryY=0.5;entryDx=0;entryDy=0;" edge="1" parent="1" source="ToIB3P93mRy2LaNMZs85-27" target="ToIB3P93mRy2LaNMZs85-28">
          <mxGeometry relative="1" as="geometry" />
        </mxCell>
        <mxCell id="ToIB3P93mRy2LaNMZs85-27" value="A Subtree is asked" style="ellipse;whiteSpace=wrap;html=1;" parent="1" vertex="1">
          <mxGeometry x="40" y="95" width="120" height="80" as="geometry" />
        </mxCell>
        <mxCell id="k04LmPVtT5R0oYDf2p-D-6" style="edgeStyle=orthogonalEdgeStyle;rounded=0;orthogonalLoop=1;jettySize=auto;html=1;exitX=1;exitY=0.5;exitDx=0;exitDy=0;" edge="1" parent="1" source="ToIB3P93mRy2LaNMZs85-28" target="ToIB3P93mRy2LaNMZs85-34">
          <mxGeometry relative="1" as="geometry" />
        </mxCell>
        <mxCell id="k04LmPVtT5R0oYDf2p-D-9" value="Yes" style="edgeLabel;html=1;align=center;verticalAlign=middle;resizable=0;points=[];" vertex="1" connectable="0" parent="k04LmPVtT5R0oYDf2p-D-6">
          <mxGeometry x="-0.15" y="-2" relative="1" as="geometry">
            <mxPoint y="-12" as="offset" />
          </mxGeometry>
        </mxCell>
        <mxCell id="k04LmPVtT5R0oYDf2p-D-7" style="edgeStyle=orthogonalEdgeStyle;rounded=0;orthogonalLoop=1;jettySize=auto;html=1;exitX=0.5;exitY=1;exitDx=0;exitDy=0;" edge="1" parent="1" source="ToIB3P93mRy2LaNMZs85-28" target="ToIB3P93mRy2LaNMZs85-31">
          <mxGeometry relative="1" as="geometry" />
        </mxCell>
        <mxCell id="k04LmPVtT5R0oYDf2p-D-10" value="No" style="edgeLabel;html=1;align=center;verticalAlign=middle;resizable=0;points=[];" vertex="1" connectable="0" parent="k04LmPVtT5R0oYDf2p-D-7">
          <mxGeometry x="-0.45" y="-1" relative="1" as="geometry">
            <mxPoint x="11" as="offset" />
          </mxGeometry>
        </mxCell>
        <mxCell id="ToIB3P93mRy2LaNMZs85-28" value="Is the level is a root&amp;nbsp;&lt;span style=&quot;background-color: initial;&quot;&gt;of a Subtree&lt;/span&gt;" style="rhombus;whiteSpace=wrap;html=1;shadow=0;fontFamily=Helvetica;fontSize=12;align=center;strokeWidth=1;spacing=24;spacingTop=0;" parent="1" vertex="1">
          <mxGeometry x="200" y="85" width="140" height="100" as="geometry" />
        </mxCell>
        <mxCell id="ToIB3P93mRy2LaNMZs85-31" value="Throw Exception" style="ellipse;whiteSpace=wrap;html=1;shadow=0;strokeWidth=1;spacing=6;spacingTop=-4;" parent="1" vertex="1">
          <mxGeometry x="210" y="225" width="120" height="80" as="geometry" />
        </mxCell>
        <mxCell id="ToIB3P93mRy2LaNMZs85-37" style="edgeStyle=orthogonalEdgeStyle;rounded=0;orthogonalLoop=1;jettySize=auto;html=1;exitX=1;exitY=0.5;exitDx=0;exitDy=0;entryX=0;entryY=0.5;entryDx=0;entryDy=0;" parent="1" source="ToIB3P93mRy2LaNMZs85-34" target="ToIB3P93mRy2LaNMZs85-47" edge="1">
          <mxGeometry relative="1" as="geometry">
            <mxPoint x="537" y="135" as="targetPoint" />
          </mxGeometry>
        </mxCell>
        <mxCell id="ToIB3P93mRy2LaNMZs85-46" value="No" style="edgeLabel;html=1;align=center;verticalAlign=middle;resizable=0;points=[];" parent="ToIB3P93mRy2LaNMZs85-37" vertex="1" connectable="0">
          <mxGeometry x="0.0597" y="-2" relative="1" as="geometry">
            <mxPoint x="-12" y="-12" as="offset" />
          </mxGeometry>
        </mxCell>
        <mxCell id="k04LmPVtT5R0oYDf2p-D-4" style="edgeStyle=orthogonalEdgeStyle;rounded=0;orthogonalLoop=1;jettySize=auto;html=1;exitX=0.5;exitY=1;exitDx=0;exitDy=0;entryX=0;entryY=0.5;entryDx=0;entryDy=0;" edge="1" parent="1" source="ToIB3P93mRy2LaNMZs85-34" target="ToIB3P93mRy2LaNMZs85-42">
          <mxGeometry relative="1" as="geometry" />
        </mxCell>
        <mxCell id="k04LmPVtT5R0oYDf2p-D-5" value="Yes" style="edgeLabel;html=1;align=center;verticalAlign=middle;resizable=0;points=[];" vertex="1" connectable="0" parent="k04LmPVtT5R0oYDf2p-D-4">
          <mxGeometry x="-0.7294" y="1" relative="1" as="geometry">
            <mxPoint x="19" y="-26" as="offset" />
          </mxGeometry>
        </mxCell>
        <mxCell id="ToIB3P93mRy2LaNMZs85-34" value="Does the Subtree exists in the database ?" style="rhombus;whiteSpace=wrap;html=1;shadow=0;fontFamily=Helvetica;fontSize=12;align=center;strokeWidth=1;spacing=31;spacingTop=0;spacingRight=0;" parent="1" vertex="1">
          <mxGeometry x="380" y="85" width="140" height="100" as="geometry" />
        </mxCell>
        <mxCell id="ToIB3P93mRy2LaNMZs85-42" value="Return the Subtree" style="ellipse;whiteSpace=wrap;html=1;" parent="1" vertex="1">
          <mxGeometry x="587" y="325" width="120" height="80" as="geometry" />
        </mxCell>
        <mxCell id="ToIB3P93mRy2LaNMZs85-49" value="" style="edgeStyle=orthogonalEdgeStyle;rounded=0;orthogonalLoop=1;jettySize=auto;html=1;" parent="1" source="ToIB3P93mRy2LaNMZs85-47" target="ToIB3P93mRy2LaNMZs85-48" edge="1">
          <mxGeometry relative="1" as="geometry" />
        </mxCell>
        <mxCell id="ToIB3P93mRy2LaNMZs85-50" value="No" style="edgeLabel;html=1;align=center;verticalAlign=middle;resizable=0;points=[];" parent="ToIB3P93mRy2LaNMZs85-49" vertex="1" connectable="0">
          <mxGeometry x="-0.4667" y="-4" relative="1" as="geometry">
            <mxPoint y="-14" as="offset" />
          </mxGeometry>
        </mxCell>
        <mxCell id="ToIB3P93mRy2LaNMZs85-52" value="" style="edgeStyle=orthogonalEdgeStyle;rounded=0;orthogonalLoop=1;jettySize=auto;html=1;" parent="1" source="ToIB3P93mRy2LaNMZs85-47" target="ToIB3P93mRy2LaNMZs85-51" edge="1">
          <mxGeometry relative="1" as="geometry" />
        </mxCell>
        <mxCell id="ToIB3P93mRy2LaNMZs85-53" value="Yes" style="edgeLabel;html=1;align=center;verticalAlign=middle;resizable=0;points=[];" parent="ToIB3P93mRy2LaNMZs85-52" vertex="1" connectable="0">
          <mxGeometry x="-0.3333" y="-2" relative="1" as="geometry">
            <mxPoint x="15" as="offset" />
          </mxGeometry>
        </mxCell>
        <mxCell id="ToIB3P93mRy2LaNMZs85-47" value="Does the level correspond to the root level of a max rank Subtree" style="rhombus;whiteSpace=wrap;html=1;shadow=0;fontFamily=Helvetica;fontSize=12;align=center;strokeWidth=1;spacing=31;spacingTop=0;spacingRight=0;" parent="1" vertex="1">
          <mxGeometry x="557" y="80" width="180" height="110" as="geometry" />
        </mxCell>
        <mxCell id="ToIB3P93mRy2LaNMZs85-56" style="edgeStyle=orthogonalEdgeStyle;rounded=0;orthogonalLoop=1;jettySize=auto;html=1;exitX=0.5;exitY=1;exitDx=0;exitDy=0;entryX=0.5;entryY=1;entryDx=0;entryDy=0;" parent="1" source="ToIB3P93mRy2LaNMZs85-48" target="ToIB3P93mRy2LaNMZs85-54" edge="1">
          <mxGeometry relative="1" as="geometry" />
        </mxCell>
        <mxCell id="ToIB3P93mRy2LaNMZs85-48" value="Create a new Subtree" style="whiteSpace=wrap;html=1;shadow=0;strokeWidth=1;spacing=18;spacingTop=0;spacingRight=0;" parent="1" vertex="1">
          <mxGeometry x="797" y="105" width="120" height="60" as="geometry" />
        </mxCell>
        <mxCell id="ToIB3P93mRy2LaNMZs85-55" style="edgeStyle=orthogonalEdgeStyle;rounded=0;orthogonalLoop=1;jettySize=auto;html=1;exitX=0;exitY=0.5;exitDx=0;exitDy=0;entryX=1;entryY=0.5;entryDx=0;entryDy=0;" parent="1" source="ToIB3P93mRy2LaNMZs85-51" target="ToIB3P93mRy2LaNMZs85-54" edge="1">
          <mxGeometry relative="1" as="geometry" />
        </mxCell>
        <mxCell id="ToIB3P93mRy2LaNMZs85-51" value="Create a max rank Subtree" style="whiteSpace=wrap;html=1;shadow=0;strokeWidth=1;spacing=20;spacingTop=0;spacingRight=0;direction=west;" parent="1" vertex="1">
          <mxGeometry x="587" y="235" width="120" height="60" as="geometry" />
        </mxCell>
        <mxCell id="k04LmPVtT5R0oYDf2p-D-2" value="" style="edgeStyle=orthogonalEdgeStyle;rounded=0;orthogonalLoop=1;jettySize=auto;html=1;" edge="1" parent="1" source="ToIB3P93mRy2LaNMZs85-54" target="k04LmPVtT5R0oYDf2p-D-1">
          <mxGeometry relative="1" as="geometry" />
        </mxCell>
        <mxCell id="ToIB3P93mRy2LaNMZs85-54" value="Convert the Subtree to JSON binary" style="whiteSpace=wrap;html=1;shadow=0;strokeWidth=1;spacing=20;spacingTop=0;spacingRight=0;direction=west;" parent="1" vertex="1">
          <mxGeometry x="797" y="235" width="120" height="60" as="geometry" />
        </mxCell>
        <mxCell id="k04LmPVtT5R0oYDf2p-D-3" style="edgeStyle=orthogonalEdgeStyle;rounded=0;orthogonalLoop=1;jettySize=auto;html=1;exitX=0;exitY=0.5;exitDx=0;exitDy=0;entryX=1;entryY=0.5;entryDx=0;entryDy=0;" edge="1" parent="1" source="k04LmPVtT5R0oYDf2p-D-1" target="ToIB3P93mRy2LaNMZs85-42">
          <mxGeometry relative="1" as="geometry" />
        </mxCell>
        <mxCell id="k04LmPVtT5R0oYDf2p-D-1" value="Update the database with the new Subtree" style="whiteSpace=wrap;html=1;shadow=0;strokeWidth=1;spacing=12;spacingTop=0;spacingRight=0;" vertex="1" parent="1">
          <mxGeometry x="797" y="335" width="120" height="60" as="geometry" />
        </mxCell>
      </root>
    </mxGraphModel>
  </diagram>
</mxfile>
